<svg data-v-423bf9ae="" xmlns="http://www.w3.org/2000/svg" viewBox="0 0 438.9111853905293 163" class="iconAbove"><!----><!----><!----><g data-v-423bf9ae="" id="27b087c1-b963-416f-9af3-688651c2c1f6" fill="#000000" transform="matrix(4.297994257596313,0,0,4.297994257596313,-3.0086001047727677,102.82808359636587)"><path d="M3.49 10.05C3.07 10.05 2.79 10.00 2.42 9.88L1.99 8.19C1.30 8.19 0.74 8.41 0.74 9.16C0.74 10.53 2.83 10.74 3.58 10.74C6.05 10.74 7.07 9.62 7.07 8.08C7.07 6.45 5.82 5.68 4.35 4.94C3.56 4.54 2.00 3.89 2.00 2.88C2.00 1.96 2.62 1.15 3.88 1.15C4.30 1.15 4.58 1.20 4.94 1.32L5.38 3.01C6.06 3.01 6.62 2.59 6.62 1.90C6.62 0.53 4.65 0.46 3.89 0.46C2.14 0.46 0.70 1.27 0.70 2.98C0.70 4.89 1.92 5.46 2.98 6.01C3.99 6.52 5.78 7.17 5.78 8.39C5.78 9.46 4.86 10.05 3.49 10.05ZM11.52 10.12C10.68 10.12 10.15 9.49 10.15 8.43L10.15 4.47C10.15 4.47 10.16 3.81 9.39 3.81C8.93 3.81 8.43 3.92 8.11 3.96L8.11 4.47L8.83 4.47L8.83 8.15C8.83 9.83 9.70 10.65 11.23 10.65C11.94 10.65 12.63 10.26 13.02 9.60C13.22 10.39 13.85 10.65 14.34 10.65C14.60 10.65 14.88 10.61 15.11 10.50L15.11 10.00C14.67 10.00 14.28 9.79 14.28 9.35L14.28 3.96L13.79 3.81L12.96 3.96L12.96 7.73C12.96 9.32 12.15 10.12 11.52 10.12ZM17.50 4.66C17.50 4.66 17.51 3.81 16.74 3.81C16.28 3.81 15.67 3.91 15.34 3.96L15.34 4.47L16.18 4.47L16.18 12.73C16.18 13.71 16.87 14 17.39 14C17.77 14 18.13 13.94 18.33 13.85L18.33 13.34C17.89 13.34 17.50 13.13 17.50 12.70L17.50 7.39C17.50 5.42 18.68 4.47 19.35 4.47C20.17 4.47 20.78 4.86 20.78 6.65C20.78 8.55 19.64 9.98 18.54 9.98L17.95 9.98L17.95 10.50L18.56 10.50C20.71 10.50 22.26 8.83 22.26 6.75C22.26 4.47 21.06 3.81 19.66 3.81C18.93 3.81 17.86 4.42 17.50 5.43ZM29.39 5.78C29.39 4.34 28.29 3.81 26.67 3.81C24.71 3.81 23.31 5.07 23.31 7.22C23.31 9.30 24.47 10.65 26.95 10.65C27.86 10.65 28.76 10.37 29.36 9.83L29.04 9.37C28.46 9.73 27.78 10.00 27.03 10.00C25.76 10.00 25.05 9.14 24.85 7.87C27.22 7.87 29.39 7.49 29.39 5.78ZM24.79 7.11C24.79 5.52 25.41 4.33 26.61 4.33C27.58 4.33 28.07 4.73 28.07 5.61C28.07 6.65 26.63 7.36 24.79 7.38ZM31.15 4.47L31.15 10.50L32.47 10.50L32.47 7.39C32.47 5.42 33.59 4.47 34.26 4.47L34.65 5.36C35.10 5.36 35.45 5.04 35.45 4.62C35.45 4.20 35.18 3.81 34.45 3.81C33.73 3.81 32.83 4.42 32.47 5.43L32.47 4.66C32.47 4.66 32.48 3.81 31.71 3.81C31.25 3.81 30.69 3.91 30.37 3.96L30.37 4.47ZM37.77 7.10C37.77 5.12 38.81 4.33 39.51 4.33C40.50 4.33 41.12 5.17 41.12 6.93C41.12 8.61 40.57 10.00 39.24 10.00C38.70 10.00 38.12 9.88 37.77 9.70ZM36.46 10.00C37.27 10.47 38.16 10.65 39.34 10.65C41.33 10.65 42.50 9.14 42.50 6.90C42.50 4.96 41.38 3.81 39.70 3.81C38.68 3.81 37.81 4.55 37.49 5.54L37.77 4.20L37.77 0.70C37.77 0.70 37.79 0.04 37.02 0.04C36.55 0.04 35.94 0.14 35.62 0.20L35.62 0.70L36.46 0.70ZM44.39 10.12C44.39 11.52 44.24 12.88 43.06 13.38L42.73 12.74C42.36 12.74 42.06 13.01 42.06 13.37C42.06 13.73 42.36 14 42.73 14C44.30 14 45.71 12.56 45.71 10.50L45.71 4.47L47.31 4.47L47.40 3.96L45.71 3.96L45.71 2.63C45.71 1.12 46.33 0.56 47.14 0.56C47.40 0.56 47.61 0.70 47.61 0.70L48.01 1.85C48.40 1.85 48.76 1.54 48.76 1.11C48.76 0.32 48.12 0.04 47.08 0.04C45.37 0.04 44.39 1.33 44.39 2.91L44.39 3.63L43.34 3.96L43.44 4.47L44.39 4.47ZM49.62 4.47L49.62 10.50L50.93 10.50L50.93 7.39C50.93 5.42 52.05 4.47 52.72 4.47L53.12 5.36C53.56 5.36 53.91 5.04 53.91 4.62C53.91 4.20 53.65 3.81 52.92 3.81C52.19 3.81 51.30 4.42 50.93 5.43L50.93 4.66C50.93 4.66 50.95 3.81 50.18 3.81C49.71 3.81 49.15 3.91 48.83 3.96L48.83 4.47ZM57.27 10.65C57.96 10.65 58.67 10.28 59.00 9.60C59.19 10.39 59.74 10.65 60.23 10.65C60.49 10.65 60.77 10.61 61.00 10.50L61.00 10.00C60.56 10.00 60.23 9.79 60.23 9.35L60.23 3.96L59.74 3.81L58.91 4.03C58.56 3.85 58.11 3.81 57.69 3.81C55.93 3.81 54.49 4.90 54.49 7.57C54.49 9.83 55.90 10.65 57.27 10.65ZM58.91 7.77C58.91 9.37 58.11 10.00 57.41 10.00C56.64 10.00 55.85 9.45 55.85 7.50C55.85 5.08 56.87 4.33 57.76 4.33C58.18 4.33 58.46 4.40 58.91 4.65ZM63.14 7.53C63.14 5.42 63.94 4.33 65.11 4.33C65.60 4.33 66.05 4.47 66.44 4.59L66.44 7.07C66.44 9.04 65.41 9.84 64.71 9.84C63.87 9.84 63.14 9.34 63.14 7.53ZM67.76 3.96L67.27 3.81L66.44 4.03C66.09 3.89 65.51 3.81 65.09 3.81C62.96 3.81 61.68 5.26 61.68 7.60C61.68 9.65 62.73 10.50 64.41 10.50C65.58 10.50 66.40 9.74 66.72 8.75L66.44 10.35L66.44 11.40C66.44 12.98 65.56 13.36 64.58 13.36C63.55 13.36 62.99 12.73 62.99 12.15C62.99 11.80 63.22 11.40 63.64 11.17L63.36 10.75C62.78 10.96 62.08 11.52 62.08 12.24C62.08 13.40 63.25 14 64.58 14C66.25 14 67.76 13.36 67.76 11.24ZM69.94 4.47L69.94 10.50L71.26 10.50L71.26 7.39C71.26 5.42 72.38 4.47 73.05 4.47L73.44 5.36C73.89 5.36 74.24 5.04 74.24 4.62C74.24 4.20 73.98 3.81 73.25 3.81C72.52 3.81 71.62 4.42 71.26 5.43L71.26 4.66C71.26 4.66 71.27 3.81 70.50 3.81C70.04 3.81 69.48 3.91 69.16 3.96L69.16 4.47ZM77.60 10.65C78.29 10.65 79.00 10.28 79.32 9.60C79.52 10.39 80.07 10.65 80.56 10.65C80.82 10.65 81.10 10.61 81.33 10.50L81.33 10.00C80.89 10.00 80.56 9.79 80.56 9.35L80.56 3.96L80.07 3.81L79.24 4.03C78.89 3.85 78.44 3.81 78.02 3.81C76.26 3.81 74.82 4.90 74.82 7.57C74.82 9.83 76.23 10.65 77.60 10.65ZM79.24 7.77C79.24 9.37 78.44 10.00 77.74 10.00C76.97 10.00 76.17 9.45 76.17 7.50C76.17 5.08 77.20 4.33 78.09 4.33C78.51 4.33 78.79 4.40 79.24 4.65ZM84.17 4.47C84.17 4.47 84.18 3.81 83.41 3.81C82.95 3.81 82.33 3.91 82.01 3.96L82.01 4.47L82.85 4.47L82.85 10.50L84.17 10.50L84.17 7.39C84.17 5.32 85.20 4.47 85.92 4.47C86.62 4.47 87.05 5.05 87.05 5.95L87.05 9.38C87.05 10.36 87.74 10.65 88.26 10.65C88.63 10.65 89.00 10.60 89.19 10.50L89.19 10.00C88.76 10.00 88.37 9.79 88.37 9.35L88.37 6.30C88.37 4.76 87.72 3.81 86.20 3.81C85.47 3.81 84.52 4.45 84.17 5.43ZM95.05 5.64C95.44 5.64 95.76 5.32 95.76 4.94C95.76 4.16 94.75 3.81 93.72 3.81C91.53 3.81 90.12 5.07 90.12 7.24C90.12 9.31 91.21 10.65 93.69 10.65C94.60 10.65 95.34 10.37 95.94 9.83L95.62 9.37C95.05 9.73 94.50 10.00 93.77 10.00C92.02 10.00 91.59 8.64 91.59 6.96C91.59 5.31 92.36 4.33 93.76 4.33C94.15 4.33 94.36 4.40 94.61 4.49ZM102.82 5.78C102.82 4.34 101.72 3.81 100.10 3.81C98.14 3.81 96.74 5.07 96.74 7.22C96.74 9.30 97.90 10.65 100.38 10.65C101.29 10.65 102.19 10.37 102.79 9.83L102.47 9.37C101.89 9.73 101.21 10.00 100.46 10.00C99.19 10.00 98.48 9.14 98.28 7.87C100.65 7.87 102.82 7.49 102.82 5.78ZM98.22 7.11C98.22 5.52 98.84 4.33 100.04 4.33C101.01 4.33 101.50 4.73 101.50 5.61C101.50 6.65 100.06 7.36 98.22 7.38Z"></path></g><defs data-v-423bf9ae=""><linearGradient data-v-423bf9ae="" gradientTransform="rotate(25)" id="d78c45be-f045-462b-873d-f4c3e6b567ee" x1="0%" y1="0%" x2="100%" y2="0%"><stop data-v-423bf9ae="" offset="0%" style="stop-color: rgb(135, 84, 78); stop-opacity: 1;"></stop><stop data-v-423bf9ae="" offset="100%" style="stop-color: rgb(135, 84, 78); stop-opacity: 1;"></stop></linearGradient></defs><g data-v-423bf9ae="" id="b1f4a2e0-87c9-4cbd-b7fc-d82fa9c74872" transform="matrix(1.4062494970859896,0,0,1.4062494970859896,175.00001609324835,1.000007367719121)" stroke="none" fill="url(#d78c45be-f045-462b-873d-f4c3e6b567ee)"><path d="M50 5h2a1 1 0 001-1c0-1.103.897-2 2-2 .881 0 1.645.574 1.902 1.428.097.321.348.573.669.67a1.98 1.98 0 01.001 3.804.999.999 0 00-.669.67A1.983 1.983 0 0155 10c-1.103 0-2-.897-2-2a1 1 0 00-1-1h-6a1 1 0 000 2h5.126A4.008 4.008 0 0055 12a3.96 3.96 0 003.636-2.364C60.069 8.999 61 7.595 61 6s-.931-2.999-2.364-3.636A3.96 3.96 0 0055 0a4.01 4.01 0 00-3.874 3H50a1 1 0 000 2zM45 5c.27 0 .52-.11.71-.29.18-.19.29-.45.29-.71 0-.26-.11-.52-.29-.71-.37-.37-1.05-.37-1.42 0-.18.19-.29.45-.29.71 0 .26.11.52.29.71.19.18.45.29.71.29zM33 42h-5a1 1 0 100 2h5a1 1 0 100-2zM37 44c.26 0 .52-.11.71-.29.18-.19.29-.45.29-.71s-.11-.521-.29-.71c-.37-.37-1.05-.37-1.42 0-.18.189-.29.45-.29.71s.11.52.29.71c.19.18.45.29.71.29z"></path><path d="M61.419 40.748L50.886 24.2C50.133 22.946 48.463 22 47 22h-2.184c.112-.315.184-.647.184-1v-4c0-1.654-1.346-3-3-3h-6v-2c1.654 0 3-1.346 3-3h2a1 1 0 001-1V4a1 1 0 00-1-1h-2c0-1.654-1.346-3-3-3h-8c-1.654 0-3 1.346-3 3v6c0 1.654 1.346 3 3 3v2h-6c-1.654 0-3 1.346-3 3v4c0 .353.072.685.185 1H17c-1.463 0-3.133.946-3.873 2.178L2.566 40.771C2.201 41.381 2 42.172 2 43s.201 1.619.581 2.252L13.114 61.8C13.866 63.054 15.537 64 17 64h30c1.463 0 3.134-.946 3.873-2.178l10.561-16.594c.365-.609.566-1.4.566-2.228s-.201-1.619-.581-2.252zM40 5v2h-1V5h1zM27 9V3c0-.551.449-1 1-1h8c.551 0 1 .449 1 1v6c0 .551-.449 1-1 1h-8c-.551 0-1-.449-1-1zm3 3h4v2h-4v-2zm-9 9v-4c0-.551.449-1 1-1h1v2a1 1 0 002 0v-2h2v4a1 1 0 002 0v-4h2v2a1 1 0 002 0v-2h2v4a1 1 0 002 0v-4h2v2a1 1 0 002 0v-2h1c.551 0 1 .449 1 1v4c0 .551-.449 1-1 1H22c-.551 0-1-.449-1-1zm-6.185 39.748L4.282 44.201C4.103 43.901 4 43.464 4 43s.103-.901.268-1.178l10.561-16.593C15.215 24.586 16.25 24 17 24h2.574a3.348 3.348 0 00-.246.485l-6.514 16.286c-.5 1.249-.5 3.208 0 4.457l6.515 16.285c.067.167.15.329.246.486H17c-.751.001-1.785-.585-2.185-1.251zm6.37.023L14.67 44.486c-.311-.778-.311-2.194.001-2.973l6.514-16.285C21.443 24.585 22.308 24 23 24h3.821a3.201 3.201 0 00-.276.698l-4.03 16.12c-.306 1.224-.306 3.142 0 4.365l4.03 16.119c.061.244.161.475.276.698H23c-.692 0-1.557-.586-1.815-1.229zM30 62c-.638 0-1.36-.563-1.515-1.183l-4.03-16.119c-.226-.904-.226-2.492 0-3.396l4.03-16.119C28.64 24.564 29.362 24 30 24h4c.638 0 1.36.564 1.515 1.183l4.03 16.119c.226.904.226 2.492 0 3.396l-4.03 16.119C35.36 61.437 34.638 62 34 62h-4zm7.179 0c.116-.224.215-.454.276-.698l4.03-16.119c.087-.348.146-.755.184-1.183H46a1 1 0 100-2h-4.331a7.74 7.74 0 00-.184-1.183l-4.03-16.119a3.252 3.252 0 00-.276-.698H41c.692 0 1.557.585 1.814 1.229l6.515 16.285c.311.778.311 2.194 0 2.973l-6.514 16.285C42.557 61.414 41.692 62 41 62h-3.821zm22.553-17.822L49.171 60.771C48.785 61.414 47.75 62 47 62h-2.574c.095-.157.179-.319.246-.486l6.514-16.285A5.24 5.24 0 0051.489 44H56a1 1 0 100-2h-4.511a5.316 5.316 0 00-.303-1.229l-6.515-16.286a3.202 3.202 0 00-.246-.485H47c.75 0 1.785.586 2.185 1.252l10.533 16.547c.179.3.282.737.282 1.201s-.103.901-.268 1.178z"></path></g><!----></svg>